<svg xmlns="http://www.w3.org/2000/svg" width="1024" height="1024" viewBox="0 0 1024 1024">
  <defs>
    <linearGradient id="bg" x1="0%" y1="0%" x2="100%" y2="100%">
      <stop offset="0%" stop-color="#6633EE"/>
      <stop offset="100%" stop-color="#9B7BFF"/>
    </linearGradient>
  </defs>
  <rect x="0" y="0" width="1024" height="1024" rx="230" ry="230" fill="url(#bg)"/>
  <g transform="translate(204.8,300.8) scale(19.2)" fill="#fff">
    <rect x="2" y="16.5" width="28" height="3.5" rx="1.75" opacity=".45"/>
    <path d="M6.3 16.5c-1.9 0-3.3-1.3-3.3-3 0-.9.6-1.6 1.4-1.9C5.3 8 8.6 5.4 12.6 5.4c2.3 0 4.4.85 5.9 2.2l.5-2.3c.07-.33.5-.42.7-.15l1.6 2.1c.5-.1 1-.1 1.5-.02l1.7-2c.22-.26.64-.15.7.18l.4 2.35c1.3.9 2.1 2.3 2.1 3.9 0 1.4-.63 2.68-1.66 3.58.04.15.06.3.06.47 0 .95-.83 1.72-1.85 1.72H6.3z"/>
  </g>
</svg>
